<svg xmlns="http://www.w3.org/2000/svg" xmlns:xlink="http://www.w3.org/1999/xlink" width="500" zoomAndPan="magnify" viewBox="0 0 375 374.999991" height="500" preserveAspectRatio="xMidYMid meet" version="1.0"><defs><g/><clipPath id="f314cfb7d5"><path d="M 65.792969 70.648438 L 296.042969 70.648438 L 296.042969 300.898438 L 65.792969 300.898438 Z M 65.792969 70.648438 " clip-rule="nonzero"/></clipPath><clipPath id="a06eae0fe9"><path d="M 181 70.648438 C 117.375 70.648438 65.792969 122.226562 65.792969 185.855469 C 65.792969 249.484375 117.375 301.0625 181 301.0625 C 244.628906 301.0625 296.207031 249.484375 296.207031 185.855469 C 296.207031 122.226562 244.628906 70.648438 181 70.648438 Z M 181 70.648438 " clip-rule="nonzero"/></clipPath></defs><g clip-path="url(#f314cfb7d5)"><g clip-path="url(#a06eae0fe9)"><path stroke-linecap="butt" transform="matrix(0.75, 0, 0, 0.75, 65.793238, 70.648507)" fill="none" stroke-linejoin="miter" d="M 153.609026 -0.0000931477 C 68.775687 -0.0000931477 -0.000358706 68.770745 -0.000358706 153.609292 C -0.000358706 238.447839 68.775687 307.218677 153.609026 307.218677 C 238.447574 307.218677 307.218411 238.447839 307.218411 153.609292 C 307.218411 68.770745 238.447574 -0.0000931477 153.609026 -0.0000931477 Z M 153.609026 -0.0000931477 " stroke="#000000" stroke-width="20" stroke-opacity="1" stroke-miterlimit="4"/></g></g><g fill="#000000" fill-opacity="1"><g transform="translate(100.141545, 237.540188)"><g><path d="M 74.296875 -1.765625 C 74.484375 -1.316406 74.460938 -0.910156 74.234375 -0.546875 C 74.003906 -0.179688 73.617188 0 73.078125 0 L 53.609375 0 C 52.890625 0 52.4375 -0.269531 52.25 -0.8125 L 32.390625 -43.953125 L 20.6875 -43.953125 L 20.6875 -1.21875 C 20.6875 -0.40625 20.1875 0 19.1875 0 L 1.359375 0 C 0.453125 0 0 -0.40625 0 -1.21875 L 0 -63.953125 L 36.609375 -63.953125 C 37.691406 -63.953125 39.140625 -64.039062 40.953125 -64.21875 C 42.773438 -64.40625 44.566406 -64.90625 46.328125 -65.71875 C 48.097656 -66.539062 49.59375 -67.789062 50.8125 -69.46875 C 52.039062 -71.144531 52.65625 -73.476562 52.65625 -76.46875 C 52.65625 -79.46875 52 -81.828125 50.6875 -83.546875 C 49.375 -85.273438 47.765625 -86.523438 45.859375 -87.296875 C 43.953125 -88.066406 42.132812 -88.5625 40.40625 -88.78125 C 38.6875 -89.007812 37.421875 -89.125 36.609375 -89.125 L 0 -89.125 L 0 -107.640625 C 0 -108.453125 0.453125 -108.859375 1.359375 -108.859375 L 36.609375 -108.859375 C 37.878906 -108.859375 39.921875 -108.742188 42.734375 -108.515625 C 45.546875 -108.296875 48.695312 -107.6875 52.1875 -106.6875 C 55.675781 -105.6875 59.03125 -104.050781 62.25 -101.78125 C 65.476562 -99.519531 68.132812 -96.347656 70.21875 -92.265625 C 72.300781 -88.179688 73.34375 -82.914062 73.34375 -76.46875 C 73.34375 -70.9375 72.4375 -66.242188 70.625 -62.390625 C 68.8125 -58.535156 66.382812 -55.382812 63.34375 -52.9375 C 60.300781 -50.488281 56.96875 -48.582031 53.34375 -47.21875 C 56.789062 -39.507812 60.304688 -31.890625 63.890625 -24.359375 C 67.472656 -16.828125 70.941406 -9.296875 74.296875 -1.765625 Z M 74.296875 -1.765625 "/></g></g></g><g fill="#000000" fill-opacity="1"><g transform="translate(179.787524, 244.831933)"><g><path d="M 86.8125 -2.046875 C 87.269531 -1.492188 87.363281 -1.015625 87.09375 -0.609375 C 86.820312 -0.203125 86.320312 0 85.59375 0 L 62.1875 0 C 61.644531 0 61.238281 -0.132812 60.96875 -0.40625 L 29.25 -39.59375 C 28.800781 -39.144531 27.78125 -38.035156 26.1875 -36.265625 C 24.601562 -34.492188 22.695312 -32.359375 20.46875 -29.859375 C 18.25 -27.367188 15.957031 -24.785156 13.59375 -22.109375 C 11.238281 -19.429688 9.019531 -16.910156 6.9375 -14.546875 C 4.851562 -12.191406 3.175781 -10.289062 1.90625 -8.84375 C 0.632812 -7.394531 0 -6.671875 0 -6.671875 L 0 -107.640625 C 0 -108.453125 0.5 -108.859375 1.5 -108.859375 L 19.453125 -108.859375 C 20.359375 -108.859375 20.8125 -108.453125 20.8125 -107.640625 L 20.8125 -58.109375 L 61.78125 -108.453125 C 62.050781 -108.722656 62.457031 -108.859375 63 -108.859375 L 85.1875 -108.859375 C 85.914062 -108.859375 86.414062 -108.628906 86.6875 -108.171875 C 86.957031 -107.722656 86.863281 -107.273438 86.40625 -106.828125 L 43.140625 -53.484375 Z M 86.8125 -2.046875 "/></g></g></g></svg>